<svg width="66" height="67" viewBox="0 0 66 67" fill="none" xmlns="http://www.w3.org/2000/svg">
<path d="M54.2234 32.4819L37.8323 12.9477C36.3236 11.1497 33.6428 10.9151 31.8448 12.4239L12.3106 28.815C10.5126 30.3237 10.278 33.0044 11.7868 34.8025L28.1779 54.3366C29.6866 56.1347 32.3674 56.3692 34.1654 54.8605L53.6996 38.4694C55.4976 36.9606 55.7322 34.2799 54.2234 32.4819Z" stroke="#6F7A97" stroke-width="2" stroke-linecap="round" stroke-linejoin="round"/>
<path d="M41.9864 34.428L33.7909 24.6609L24.0238 32.8564L32.2193 42.6235L41.9864 34.428Z" stroke="#6F7A97" stroke-width="2" stroke-linecap="round" stroke-linejoin="round"/>
<path d="M46.8136 13.7335L41.9301 17.8313" stroke="#6F7A97" stroke-width="2" stroke-linecap="round" stroke-linejoin="round"/>
<path d="M55.0092 23.5006L50.1256 27.5984" stroke="#6F7A97" stroke-width="2" stroke-linecap="round" stroke-linejoin="round"/>
<path d="M15.8846 39.6861L11.001 43.7838" stroke="#6F7A97" stroke-width="2" stroke-linecap="round" stroke-linejoin="round"/>
<path d="M24.0801 49.4531L19.1966 53.5509" stroke="#6F7A97" stroke-width="2" stroke-linecap="round" stroke-linejoin="round"/>
<path d="M48.816 42.5672L52.9138 47.4507" stroke="#6F7A97" stroke-width="2" stroke-linecap="round" stroke-linejoin="round"/>
<path d="M40.6768 49.3968L44.7746 54.2803" stroke="#6F7A97" stroke-width="2" stroke-linecap="round" stroke-linejoin="round"/>
<path d="M22.8635 11.6381L26.9612 16.5217" stroke="#6F7A97" stroke-width="2" stroke-linecap="round" stroke-linejoin="round"/>
<path d="M14.7243 18.4677L18.822 23.3513" stroke="#6F7A97" stroke-width="2" stroke-linecap="round" stroke-linejoin="round"/>
</svg>
